<svg width="200" height="219" viewBox="0 0 200 219" fill="none" xmlns="http://www.w3.org/2000/svg">
<path d="M104.585 1.24672C101.074 -0.415572 98.9257 -0.415572 95.4151 1.24672C83.342 6.96329 89.0266 55.6197 93.8091 85.7222C83.3756 57.3839 64.7732 12.7603 51.7622 14.8746C47.9788 15.4894 46.1536 16.7299 43.9713 20.1694C37.097 31.004 60.2314 63.8456 78.4316 86.8219C56.7275 67.8413 25.8212 43.8624 16.2136 51.8232C13.1636 54.3504 12.1058 56.3977 11.6983 60.562C10.3797 74.0365 47.0166 91.248 73.2437 101.786C45.6778 96.8163 6.05055 92.0412 1.13855 104.48C-0.379518 108.324 -0.379518 110.676 1.13855 114.52C6.05055 126.959 45.6777 122.184 73.2437 117.214C47.0166 127.752 10.3797 144.964 11.6982 158.438C12.1058 162.602 13.1636 164.65 16.2136 167.177C25.8211 175.138 56.7271 151.159 78.4312 132.178C60.231 155.155 37.0969 187.996 43.9711 198.831C46.1534 202.27 47.9787 203.511 51.7621 204.125C64.7731 206.24 83.3757 161.615 93.8092 133.277C89.0267 163.38 83.3419 212.037 95.4151 217.753C98.9257 219.416 101.074 219.416 104.585 217.753C116.658 212.036 110.973 163.376 106.19 133.274C116.623 161.612 135.227 206.24 148.238 204.125C152.022 203.511 153.847 202.27 156.029 198.831C162.903 187.996 139.769 155.155 121.569 132.178C143.273 151.159 174.179 175.138 183.787 167.177C186.837 164.65 187.895 162.602 188.302 158.438C189.621 144.964 152.984 127.752 126.757 117.214C154.323 122.184 193.949 126.959 198.861 114.52C200.38 110.676 200.38 108.324 198.861 104.48C193.95 92.0413 154.323 96.8162 126.757 101.786C152.984 91.2478 189.621 74.0365 188.302 60.562C187.895 56.3977 186.837 54.3504 183.787 51.8232C174.179 43.8624 143.273 67.8413 121.569 86.822C139.769 63.8457 162.903 31.004 156.029 20.1694C153.847 16.7299 152.021 15.4894 148.238 14.8746C135.227 12.7602 116.623 57.3871 106.19 85.7253C110.973 55.623 116.658 6.96348 104.585 1.24672Z" fill="#FD026B"/>
</svg>
